<svg width="52" height="52" viewBox="0 0 52 52" fill="none" xmlns="http://www.w3.org/2000/svg">
<g clip-path="url(#clip0)">
<path d="M25.9994 0C22.1854 0 19.082 3.10334 19.082 6.91742V9.00453H22.66V6.91742C22.66 5.07599 24.1585 3.57795 25.9994 3.57795C27.8409 3.57795 29.3395 5.07589 29.3395 6.91742V9.00453H32.9174V6.91742C32.9174 3.10334 29.8136 0 25.9994 0Z" fill="#5157B5"/>
<path d="M30.8891 43.5912C30.8891 46.255 28.722 48.422 26.0587 48.422H25.9395C23.2763 48.422 21.1092 46.255 21.1092 43.5912H17.5312C17.5312 48.2282 21.3031 52.0001 25.9395 52.0001H26.0587C30.6952 52.0001 34.467 48.2282 34.467 43.5912H30.8891Z" fill="#5157B5"/>
<path d="M49.1495 42.9227L44.067 35.0159V24.867C44.067 14.8051 35.9611 6.61926 25.9982 6.61926C16.0347 6.61926 7.9294 14.8051 7.9294 24.867V35.0159L2.84691 42.9221C2.49266 43.4724 2.46768 44.1726 2.7813 44.7468C3.09493 45.3211 3.69668 45.6789 4.35146 45.6789H47.645C48.2998 45.6789 48.9014 45.3211 49.2146 44.7474C49.5287 44.1732 49.5037 43.4731 49.1495 42.9227ZM7.62817 42.1009L11.2229 36.5086C11.4083 36.2206 11.5073 35.8842 11.5073 35.5413V24.867C11.5073 16.7784 18.008 10.1973 25.9982 10.1973C33.989 10.1973 40.489 16.7785 40.489 24.867V35.5413C40.489 35.8842 40.5874 36.2199 40.7729 36.5086L44.3676 42.1009H7.62817Z" fill="#5157B5"/>
</g>
<defs>
<clipPath id="clip0">
<rect width="52" height="52" fill="white"/>
</clipPath>
</defs>
</svg>
