<svg width="56" height="56" viewBox="0 0 56 56" fill="none" xmlns="http://www.w3.org/2000/svg">
<path d="M36.282 30.3333C38.032 30.3333 39.572 29.3766 40.3654 27.93L48.7187 12.7866C49.582 11.2466 48.462 9.33329 46.6887 9.33329H12.1554L9.96203 4.66663H2.33203V9.33329H6.9987L15.3987 27.0433L12.2487 32.7366C10.5454 35.8633 12.7854 39.6666 16.332 39.6666H44.332V35H16.332L18.8987 30.3333H36.282ZM14.372 14H42.722L36.282 25.6666H19.902L14.372 14ZM16.332 42C13.7654 42 11.6887 44.1 11.6887 46.6666C11.6887 49.2333 13.7654 51.3333 16.332 51.3333C18.8987 51.3333 20.9987 49.2333 20.9987 46.6666C20.9987 44.1 18.8987 42 16.332 42ZM39.6654 42C37.0987 42 35.022 44.1 35.022 46.6666C35.022 49.2333 37.0987 51.3333 39.6654 51.3333C42.232 51.3333 44.332 49.2333 44.332 46.6666C44.332 44.1 42.232 42 39.6654 42Z" fill="#5157B5"/>
</svg>
