<svg width="24" height="24" viewBox="0 0 24 24" fill="none" xmlns="http://www.w3.org/2000/svg">
<g clip-path="url(#clip0)">
<path d="M23.3603 3.89495L20.0876 0.619482C19.2631 -0.205803 17.8286 -0.207388 17.0008 0.621067L2.33967 15.4269C2.27468 15.4924 2.22779 15.5729 2.20222 15.6614L0.0204471 23.3043C-0.0339105 23.4946 0.0193733 23.6999 0.159486 23.8401C0.263343 23.944 0.402382 24 0.545154 24C0.595216 24 0.645841 23.9931 0.69483 23.9792L8.33113 21.7955C8.41955 21.77 8.49998 21.723 8.56549 21.658L23.3603 6.9828C23.7726 6.57019 23.9995 6.02211 23.9995 5.4389C23.9995 4.8557 23.7726 4.30757 23.3603 3.89495ZM14.6239 4.58882L16.6317 6.59662L6.149 17.0794L5.39669 15.5742C5.30398 15.3894 5.11544 15.2727 4.90875 15.2727H4.03524L14.6239 4.58882ZM1.33935 22.6603L2.04983 20.1732L3.8264 21.9498L1.33935 22.6603ZM7.63599 20.8615L5.02626 21.607L2.3926 18.9733L3.13811 16.3636H4.57151L5.51164 18.2439C5.56436 18.3494 5.65012 18.4352 5.75561 18.4879L7.63594 19.428V20.8615H7.63599ZM8.72692 19.9644V19.0909C8.72692 18.8842 8.61028 18.6957 8.42543 18.603L6.92029 17.8507L17.403 7.36796L19.4108 9.37577L8.72692 19.9644ZM22.5906 6.2243L20.1855 8.60791L15.3917 3.81405L17.7737 1.41061C18.186 0.998298 18.904 0.998298 19.3163 1.41061L22.589 4.68332C22.7952 4.88945 22.9086 5.16323 22.9086 5.4546C22.9086 5.74598 22.7952 6.01976 22.5906 6.2243Z" fill="white"/>
</g>
<defs>
<clipPath id="clip0">
<rect width="24" height="24" fill="white"/>
</clipPath>
</defs>
</svg>
