<svg width="24" height="24" viewBox="0 0 24 24" fill="none" xmlns="http://www.w3.org/2000/svg">
<path d="M23.8402 4.52342L19.4766 0.159801C19.3743 0.0575285 19.2358 0 19.0909 0H2.18184C0.979057 0 0 0.978495 0 2.18184V21.8182C0 23.0215 0.979057 24.0001 2.18184 24.0001H21.8182C23.021 24.0001 24.0001 23.0216 24.0001 21.8182V4.90909C24 4.76423 23.9425 4.6257 23.8402 4.52342ZM5.45457 1.09089H17.4546V7.63635C17.4546 8.23772 16.9656 8.72725 16.3637 8.72725H6.54546C5.94353 8.72725 5.45457 8.23772 5.45457 7.63635V1.09089ZM19.6364 22.9091H4.36362V13.0909H19.6364V22.9091ZM22.9091 21.8182C22.9091 22.4196 22.4201 22.9091 21.8182 22.9091H20.7273V12.5454C20.7273 12.2439 20.4833 12 20.1818 12H3.8182C3.5167 12 3.27273 12.2439 3.27273 12.5454V22.9091H2.18184C1.57991 22.9091 1.09094 22.4196 1.09094 21.8182V2.18184C1.09094 1.58047 1.57996 1.09094 2.18184 1.09094H4.36367V7.6364C4.36362 8.83969 5.34268 9.81819 6.54546 9.81819H16.3636C17.5664 9.81819 18.5455 8.83969 18.5455 7.63635V1.09089H18.8651L22.9091 5.13496V21.8182Z" fill="white"/>
<path d="M13.6363 7.63645H15.8181C16.1196 7.63645 16.3636 7.39248 16.3636 7.09098V2.72736C16.3636 2.42586 16.1196 2.18188 15.8181 2.18188H13.6363C13.3348 2.18188 13.0908 2.42586 13.0908 2.72736V7.09098C13.0908 7.39248 13.3348 7.63645 13.6363 7.63645ZM14.1817 3.27283H15.2726V6.54556H14.1817V3.27283Z" fill="white"/>
</svg>
