<svg width="56" height="56" viewBox="0 0 56 56" fill="none" xmlns="http://www.w3.org/2000/svg">
<path d="M37.1667 33.6667H35.3233L34.67 33.0367C36.9567 30.3767 38.3333 26.9233 38.3333 23.1667C38.3333 14.79 31.5433 8 23.1667 8C14.79 8 8 14.79 8 23.1667C8 31.5433 14.79 38.3333 23.1667 38.3333C26.9233 38.3333 30.3767 36.9567 33.0367 34.67L33.6667 35.3233V37.1667L45.3333 48.81L48.81 45.3333L37.1667 33.6667V33.6667ZM23.1667 33.6667C17.3567 33.6667 12.6667 28.9767 12.6667 23.1667C12.6667 17.3567 17.3567 12.6667 23.1667 12.6667C28.9767 12.6667 33.6667 17.3567 33.6667 23.1667C33.6667 28.9767 28.9767 33.6667 23.1667 33.6667Z" fill="#25C998"/>
</svg>
