<svg width="48" height="48" viewBox="0 0 48 48" fill="none" xmlns="http://www.w3.org/2000/svg">
<path d="M24.0001 0.0999756C10.7454 0.0999756 0 10.8453 0 24.1001C0 35.9881 8.65252 45.8333 19.9974 47.7398V29.1072H14.2079V22.4021H19.9974V17.458C19.9974 11.7214 23.5011 8.59532 28.6193 8.59532C31.0706 8.59532 33.1772 8.77798 33.7887 8.85843V14.8547L30.2389 14.8564C27.4561 14.8564 26.9195 16.1785 26.9195 18.1193V22.3986H33.5597L32.6936 29.1038H26.9195V47.9001C38.7941 46.4549 48 36.3589 48 24.0932C48 10.8453 37.2546 0.0999756 24.0001 0.0999756Z" fill="white"/>
</svg>
