<svg width="88" height="64" viewBox="0 0 88 64" fill="none" xmlns="http://www.w3.org/2000/svg">
<path d="M11.2331 12.0666L8 12.1082V32.0173V51.9181L8.01453 32.0339L8.03633 12.1498H11.1968H14.3572L14.3717 32.0506L14.3935 51.9597L14.4299 31.9674C14.4517 20.977 14.4662 11.9917 14.4662 12C14.4662 12.0166 13.0131 12.0416 11.2331 12.0666Z" fill="#25C998"/>
<path d="M8.10938 32.0326V51.8336H11.1972H14.2849V32.0326V12.2317H11.1972H8.10938V32.0326Z" fill="#25C998"/>
<path d="M51.3592 12.3731L48.1406 12.398V30.4935C48.1406 40.5021 48.1697 48.5972 48.206 48.6222C48.2351 48.6471 48.2859 48.8385 48.3077 49.0465C48.3804 49.6039 48.7001 50.3194 49.0779 50.752C49.5065 51.2429 50.2185 51.6506 50.7852 51.7421C51.025 51.7837 51.2357 51.8502 51.2502 51.9085C51.2647 51.9584 51.3083 52 51.3447 52C51.3883 52 51.3955 51.9584 51.3737 51.9168C51.3447 51.8586 56.0962 51.8336 65.5703 51.8336H79.8177V48.2977V44.7618L67.1251 44.7452L54.4252 44.7202L54.4034 28.6465L54.3889 12.5644L51.2793 12.5395L48.177 12.5228L51.3229 12.4979L54.4615 12.4812V28.5799V44.6786H67.176H79.8904L79.8759 48.3393C79.8613 50.3444 79.8759 51.9667 79.9049 51.9334C79.934 51.9002 79.9703 50.2279 79.9776 48.2145L79.9994 44.5538L67.2631 44.5788L54.5342 44.5954L54.5487 28.4551C54.5632 19.578 54.5705 12.3232 54.5705 12.3315C54.5705 12.3481 53.1247 12.3648 51.3592 12.3731Z" fill="#25C998"/>
<path d="M29.9417 18.3217C27.101 21.5331 23.9042 25.1522 22.8217 26.3669L20.86 28.5799L18.7894 28.5383L16.7188 28.4967V32.199V35.9013L18.8257 35.8597L20.9327 35.8181L18.8838 35.7932L16.8277 35.7765L16.8423 32.1741L16.8641 28.5799L16.8786 32.1325L16.9004 35.6933H18.9347H20.969L21.928 36.7998C22.4584 37.4072 25.4808 40.8183 28.634 44.3874C31.7944 47.9566 34.5553 51.0932 34.7732 51.3511L35.1801 51.8336H39.5684H43.9639L41.421 48.9383C40.0261 47.341 36.1173 42.9065 32.7389 39.0795L26.5997 32.1158L27.0356 31.6416C28.1472 30.4352 43.5062 12.9887 43.7387 12.6643L43.8767 12.4812H39.4884H35.0929L29.9417 18.3217Z" fill="#25C998"/>
</svg>
